<?xml version="1.0" encoding="UTF-8"?>
<svg version="1.1" viewBox="0 0 800 800" width="200" height="200" xmlns="http://www.w3.org/2000/svg">
<path transform="translate(345,152)" d="m0 0h2l3 27 5 28 7 28 12 35 13 32 18 41 17 40 14 37 10 31 9 34 6 31 4 29 2 25v42l-3 29-5 30-7 26-7 18-8 17-8 12-9 10-8 6-12 5-8 2h-21l-23-5-21-8-16-8-8-7-1-2 1-9 9-20 9-21 10-31 6-25 4-27 2-24v-28l-2-30-5-37-7-36-14-61-8-40-4-31-1-10v-40l4-22 9-27 12-27 15-32z" fill="#024f55"/>
<path transform="translate(399,35)" d="m0 0 3 1 13 28 17 37 32 72 16 37 20 47 19 46 17 43 17 45 13 36 12 36 12 42 6 26 3 19 1 10v12l-2 22-5 24-7 21-8 18-10 17-10 14-13 15-12 12-14 11-12 8-17 10-24 10-1-3 8-16 10-26 8-26 6-30 3-23 1-13v-53l-3-31-5-32-6-28-8-31-13-40-11-28-14-32-20-45-14-35-12-36-6-23-4-19-3-23-1-21v-13l1-19 4-28 5-22 6-20z" fill="#024f55"/>
<path transform="translate(269,332)" d="m0 0h2l6 35 9 43 12 54 6 34 4 32 1 14v44l-3 28-6 29-7 24-11 28-8 17-2 3-5-2-1-3-4-2-10-10-9-11-9-12-8-13-8-16-8-20-5-18-4-22-1-15v-18l5-30 9-36 12-39 15-44 13-35 11-28z" fill="#024f55"/>
</svg>
